<svg width="70" height="70" viewBox="0 0 70 70" fill="none" xmlns="http://www.w3.org/2000/svg">
<circle cx="35" cy="35" r="35" fill="#26B600"/>
<path d="M55.9629 34.5001L56.9127 31.6682C57.2082 30.787 56.7291 29.8345 55.8424 29.5408C54.9559 29.2471 53.9974 29.7233 53.7018 30.6045L52.9593 32.8182H50.1526C49.2948 23.4025 41.3092 16 31.6152 16C21.3508 16 13 24.2991 13 34.5C13 44.7009 21.3508 53 31.6152 53C41.3092 53 49.2947 45.5975 50.1526 36.1818H52.9593L53.7018 38.3955C53.9383 39.1003 54.5984 39.5459 55.307 39.5459C55.4843 39.5459 55.6648 39.518 55.8424 39.4592C56.729 39.1655 57.2081 38.213 56.9126 37.3318L55.9629 34.5001ZM31.6152 49.6365C23.217 49.6365 16.3846 42.8464 16.3846 34.5001C16.3846 26.1538 23.217 19.3637 31.6152 19.3637C39.4413 19.3637 45.9067 25.2608 46.7512 32.8183H43.3398C42.5161 27.1207 37.5726 22.7274 31.6152 22.7274C25.0834 22.7274 19.7692 28.0086 19.7692 34.5001C19.7692 40.9916 25.0834 46.2728 31.6152 46.2728C37.5726 46.2728 42.5161 41.8795 43.3398 36.1819H46.7512C45.9067 43.7395 39.4413 49.6365 31.6152 49.6365ZM36.401 32.8183C35.7024 30.8609 33.8214 29.4547 31.6152 29.4547C28.8158 29.4547 26.5383 31.718 26.5383 34.5001C26.5383 37.2822 28.8159 39.5456 31.6152 39.5456C33.8214 39.5456 35.7024 38.1393 36.401 36.1819H39.9063C39.1201 40.0156 35.7014 42.9092 31.6152 42.9092C26.9495 42.9092 23.1537 39.1369 23.1537 34.5001C23.1537 29.8633 26.9495 26.091 31.6152 26.091C35.7014 26.091 39.1201 28.9846 39.9063 32.8183H36.401Z" fill="white"/>
</svg>
