<svg width="70" height="70" viewBox="0 0 70 70" fill="none" xmlns="http://www.w3.org/2000/svg">
<circle cx="35" cy="35" r="35" fill="#26B600"/>
<path d="M52.434 25.8675C48.4491 22.7346 42.2767 19 35.4999 19C28.7531 19 22.5661 22.7808 18.564 25.9525C14.6053 29.0897 11 33.1638 11 34.5C11 36.023 14.4656 40.0135 18.5678 43.214C21.8162 45.7483 28.3355 50 35.4999 50C42.668 50 49.1851 45.7543 52.4319 43.2234C56.5342 40.0257 60 36.0309 60 34.5C59.9999 33.0701 56.4644 29.0363 52.434 25.8675ZM35.4999 44.6511C29.9054 44.6511 25.3703 40.1062 25.3703 34.5001C25.3703 28.8939 29.9054 24.3492 35.4999 24.3492C41.0944 24.3492 45.6296 28.8939 45.6296 34.5001C45.6296 40.1062 41.0944 44.6511 35.4999 44.6511Z" fill="white"/>
</svg>
